<mxfile host="app.diagrams.net" modified="2024-02-27T18:41:29.872Z" agent="Mozilla/5.0 (Windows NT 10.0; Win64; x64) AppleWebKit/537.36 (KHTML, like Gecko) Chrome/121.0.0.0 Safari/537.36 Edg/121.0.0.0" etag="QgUZYY9CcR-ne5kB4CVr" version="23.1.7" type="github">
  <diagram name="Page-1" id="c37626ed-c26b-45fb-9056-f9ebc6bb27b6">
    <mxGraphModel dx="2044" dy="1955" grid="1" gridSize="10" guides="1" tooltips="1" connect="1" arrows="1" fold="1" page="1" pageScale="1" pageWidth="1100" pageHeight="850" background="none" math="0" shadow="0">
      <root>
        <mxCell id="0" />
        <mxCell id="1" parent="0" />
        <mxCell id="Jmy7WeriP0Vt0sng7_Kj-10" value="Host Machine" style="whiteSpace=wrap;html=1;rounded=0;shadow=0;comic=0;strokeWidth=1;fontFamily=Verdana;fontSize=14;fillColor=#dae8fc;strokeColor=#6c8ebf;verticalAlign=top;fontStyle=1;" vertex="1" parent="1">
          <mxGeometry x="90" y="120" width="530" height="790" as="geometry" />
        </mxCell>
        <mxCell id="Jmy7WeriP0Vt0sng7_Kj-1" value="DMZ&lt;br&gt;(192.168.1.0/24)" style="whiteSpace=wrap;html=1;rounded=0;shadow=0;comic=0;strokeWidth=1;fontFamily=Verdana;fontSize=14;fillColor=#f5f5f5;strokeColor=none;verticalAlign=top;fontStyle=1" vertex="1" parent="1">
          <mxGeometry x="150" y="180" width="390" height="276" as="geometry" />
        </mxCell>
        <mxCell id="Jmy7WeriP0Vt0sng7_Kj-3" value="&lt;br&gt;&lt;span style=&quot;color: rgb(0, 0, 0); font-family: Helvetica; font-size: 12px; font-style: normal; font-variant-ligatures: normal; font-variant-caps: normal; font-weight: 400; letter-spacing: normal; orphans: 2; text-align: center; text-indent: 0px; text-transform: none; widows: 2; word-spacing: 0px; -webkit-text-stroke-width: 0px; background-color: rgb(251, 251, 251); text-decoration-thickness: initial; text-decoration-style: initial; text-decoration-color: initial; float: none; display: inline !important;&quot;&gt;Web Server&lt;/span&gt;&lt;br style=&quot;--tw-border-spacing-x: 0; --tw-border-spacing-y: 0; --tw-translate-x: 0; --tw-translate-y: 0; --tw-rotate: 0; --tw-skew-x: 0; --tw-skew-y: 0; --tw-scale-x: 1; --tw-scale-y: 1; --tw-pan-x: ; --tw-pan-y: ; --tw-pinch-zoom: ; --tw-scroll-snap-strictness: proximity; --tw-gradient-from-position: ; --tw-gradient-via-position: ; --tw-gradient-to-position: ; --tw-ordinal: ; --tw-slashed-zero: ; --tw-numeric-figure: ; --tw-numeric-spacing: ; --tw-numeric-fraction: ; --tw-ring-inset: ; --tw-ring-offset-width: 0px; --tw-ring-offset-color: #fff; --tw-ring-color: rgb(59 130 246 / .5); --tw-ring-offset-shadow: 0 0 #0000; --tw-ring-shadow: 0 0 #0000; --tw-shadow: 0 0 #0000; --tw-shadow-colored: 0 0 #0000; --tw-blur: ; --tw-brightness: ; --tw-contrast: ; --tw-grayscale: ; --tw-hue-rotate: ; --tw-invert: ; --tw-saturate: ; --tw-sepia: ; --tw-drop-shadow: ; --tw-backdrop-blur: ; --tw-backdrop-brightness: ; --tw-backdrop-contrast: ; --tw-backdrop-grayscale: ; --tw-backdrop-hue-rotate: ; --tw-backdrop-invert: ; --tw-backdrop-opacity: ; --tw-backdrop-saturate: ; --tw-backdrop-sepia: ; border-color: var(--border-color); color: rgb(0, 0, 0); font-family: Helvetica; font-size: 12px; font-style: normal; font-variant-ligatures: normal; font-variant-caps: normal; font-weight: 400; letter-spacing: normal; orphans: 2; text-align: center; text-indent: 0px; text-transform: none; widows: 2; word-spacing: 0px; -webkit-text-stroke-width: 0px; background-color: rgb(251, 251, 251); text-decoration-thickness: initial; text-decoration-style: initial; text-decoration-color: initial;&quot;&gt;&lt;span style=&quot;color: rgb(0, 0, 0); font-family: Helvetica; font-size: 12px; font-style: normal; font-variant-ligatures: normal; font-variant-caps: normal; font-weight: 400; letter-spacing: normal; orphans: 2; text-align: center; text-indent: 0px; text-transform: none; widows: 2; word-spacing: 0px; -webkit-text-stroke-width: 0px; background-color: rgb(251, 251, 251); text-decoration-thickness: initial; text-decoration-style: initial; text-decoration-color: initial; float: none; display: inline !important;&quot;&gt;(Ubuntu)&lt;/span&gt;&lt;div&gt;&lt;br&gt;&lt;/div&gt;" style="verticalLabelPosition=bottom;sketch=0;aspect=fixed;html=1;verticalAlign=top;strokeColor=none;align=center;outlineConnect=0;shape=mxgraph.citrix.web_server;" vertex="1" parent="1">
          <mxGeometry x="218" y="273" width="76.5" height="90" as="geometry" />
        </mxCell>
        <mxCell id="Jmy7WeriP0Vt0sng7_Kj-4" value="private.realm-of-zaxis&lt;br&gt;(10.0.2.0/24)" style="whiteSpace=wrap;html=1;rounded=0;shadow=0;comic=0;strokeWidth=1;fontFamily=Verdana;fontSize=14;fillColor=#f5f5f5;strokeColor=none;verticalAlign=top;fontStyle=1" vertex="1" parent="1">
          <mxGeometry x="175.5" y="610" width="310" height="160" as="geometry" />
        </mxCell>
        <mxCell id="Jmy7WeriP0Vt0sng7_Kj-5" value="Kali" style="image;sketch=0;aspect=fixed;html=1;points=[];align=center;fontSize=12;image=img/lib/mscae/VM_Linux.svg;" vertex="1" parent="1">
          <mxGeometry x="400" y="670" width="63.04" height="58" as="geometry" />
        </mxCell>
        <mxCell id="Jmy7WeriP0Vt0sng7_Kj-6" value="MySQL&lt;br&gt;(Ubuntu)" style="image;aspect=fixed;perimeter=ellipsePerimeter;html=1;align=center;shadow=0;dashed=0;spacingTop=3;image=img/lib/active_directory/database_server.svg;" vertex="1" parent="1">
          <mxGeometry x="208" y="660" width="41" height="50" as="geometry" />
        </mxCell>
        <mxCell id="Jmy7WeriP0Vt0sng7_Kj-7" value="SQL Server Express" style="image;aspect=fixed;perimeter=ellipsePerimeter;html=1;align=center;shadow=0;dashed=0;spacingTop=3;image=img/lib/active_directory/database_server.svg;" vertex="1" parent="1">
          <mxGeometry x="310" y="660" width="41" height="50" as="geometry" />
        </mxCell>
        <mxCell id="Jmy7WeriP0Vt0sng7_Kj-8" value="Linux (iptables)&lt;div&gt;&lt;br/&gt;&lt;/div&gt;" style="image;aspect=fixed;html=1;points=[];align=center;fontSize=12;image=img/lib/azure2/networking/Azure_Firewall_Manager.svg;" vertex="1" parent="1">
          <mxGeometry x="300" y="470" width="70" height="60" as="geometry" />
        </mxCell>
        <mxCell id="Jmy7WeriP0Vt0sng7_Kj-11" value="&lt;span style=&quot;color: rgb(0, 0, 0); font-family: Helvetica; font-size: 12px; font-style: normal; font-variant-ligatures: normal; font-variant-caps: normal; font-weight: 400; letter-spacing: normal; orphans: 2; text-align: center; text-indent: 0px; text-transform: none; widows: 2; word-spacing: 0px; -webkit-text-stroke-width: 0px; background-color: rgb(251, 251, 251); text-decoration-thickness: initial; text-decoration-style: initial; text-decoration-color: initial; float: none; display: inline !important;&quot;&gt;SSH&amp;nbsp;&lt;br&gt;&lt;/span&gt;&lt;span style=&quot;color: rgb(0, 0, 0); font-family: Helvetica; font-size: 12px; font-style: normal; font-variant-ligatures: normal; font-variant-caps: normal; font-weight: 400; letter-spacing: normal; orphans: 2; text-align: center; text-indent: 0px; text-transform: none; widows: 2; word-spacing: 0px; -webkit-text-stroke-width: 0px; background-color: rgb(251, 251, 251); text-decoration-thickness: initial; text-decoration-style: initial; text-decoration-color: initial; float: none; display: inline !important;&quot;&gt;(Ubuntu)&lt;/span&gt;&lt;div&gt;&lt;br&gt;&lt;/div&gt;" style="verticalLabelPosition=bottom;sketch=0;aspect=fixed;html=1;verticalAlign=top;strokeColor=none;align=center;outlineConnect=0;shape=mxgraph.citrix.web_server;" vertex="1" parent="1">
          <mxGeometry x="410" y="273" width="76.5" height="90" as="geometry" />
        </mxCell>
        <mxCell id="Jmy7WeriP0Vt0sng7_Kj-16" value="" style="endArrow=classic;html=1;rounded=0;endSize=8;startSize=8;startArrow=classic;startFill=1;edgeStyle=elbowEdgeStyle;exitX=1;exitY=0.667;exitDx=0;exitDy=0;exitPerimeter=0;" edge="1" parent="1" source="Jmy7WeriP0Vt0sng7_Kj-8" target="Jmy7WeriP0Vt0sng7_Kj-11">
          <mxGeometry width="50" height="50" relative="1" as="geometry">
            <mxPoint y="430" as="sourcePoint" />
            <mxPoint x="487" y="318" as="targetPoint" />
            <Array as="points">
              <mxPoint x="520" y="430" />
            </Array>
          </mxGeometry>
        </mxCell>
        <mxCell id="Jmy7WeriP0Vt0sng7_Kj-17" value="Text" style="edgeLabel;html=1;align=center;verticalAlign=middle;resizable=0;points=[];" vertex="1" connectable="0" parent="Jmy7WeriP0Vt0sng7_Kj-16">
          <mxGeometry x="0.3534" y="1" relative="1" as="geometry">
            <mxPoint as="offset" />
          </mxGeometry>
        </mxCell>
        <mxCell id="Jmy7WeriP0Vt0sng7_Kj-18" value="" style="endArrow=classic;html=1;rounded=0;endSize=8;startSize=8;startArrow=classic;startFill=1;edgeStyle=elbowEdgeStyle;" edge="1" parent="1" source="Jmy7WeriP0Vt0sng7_Kj-3" target="Jmy7WeriP0Vt0sng7_Kj-11">
          <mxGeometry width="50" height="50" relative="1" as="geometry">
            <mxPoint x="250" y="332" as="sourcePoint" />
            <mxPoint x="357" y="130" as="targetPoint" />
            <Array as="points">
              <mxPoint x="390" y="242" />
            </Array>
          </mxGeometry>
        </mxCell>
        <mxCell id="Jmy7WeriP0Vt0sng7_Kj-19" value="Text" style="edgeLabel;html=1;align=center;verticalAlign=middle;resizable=0;points=[];" vertex="1" connectable="0" parent="Jmy7WeriP0Vt0sng7_Kj-18">
          <mxGeometry x="0.3534" y="1" relative="1" as="geometry">
            <mxPoint as="offset" />
          </mxGeometry>
        </mxCell>
        <mxCell id="Jmy7WeriP0Vt0sng7_Kj-20" value="Internet" style="ellipse;shape=cloud;whiteSpace=wrap;html=1;" vertex="1" parent="1">
          <mxGeometry x="285" y="-10" width="120" height="80" as="geometry" />
        </mxCell>
        <mxCell id="Jmy7WeriP0Vt0sng7_Kj-21" value="" style="endArrow=classic;html=1;rounded=0;endSize=8;startSize=8;startArrow=classic;startFill=1;edgeStyle=elbowEdgeStyle;entryX=0.75;entryY=0;entryDx=0;entryDy=0;" edge="1" parent="1" source="Jmy7WeriP0Vt0sng7_Kj-20" target="Jmy7WeriP0Vt0sng7_Kj-1">
          <mxGeometry width="50" height="50" relative="1" as="geometry">
            <mxPoint x="500" y="234" as="sourcePoint" />
            <mxPoint x="692" y="234" as="targetPoint" />
            <Array as="points">
              <mxPoint x="440" y="120" />
            </Array>
          </mxGeometry>
        </mxCell>
        <mxCell id="Jmy7WeriP0Vt0sng7_Kj-22" value="Text" style="edgeLabel;html=1;align=center;verticalAlign=middle;resizable=0;points=[];" vertex="1" connectable="0" parent="Jmy7WeriP0Vt0sng7_Kj-21">
          <mxGeometry x="0.3534" y="1" relative="1" as="geometry">
            <mxPoint as="offset" />
          </mxGeometry>
        </mxCell>
        <mxCell id="Jmy7WeriP0Vt0sng7_Kj-24" value="" style="endArrow=classic;startArrow=classic;html=1;rounded=0;entryX=0.471;entryY=1.083;entryDx=0;entryDy=0;entryPerimeter=0;exitX=0.5;exitY=0;exitDx=0;exitDy=0;" edge="1" parent="1" source="Jmy7WeriP0Vt0sng7_Kj-4" target="Jmy7WeriP0Vt0sng7_Kj-8">
          <mxGeometry width="50" height="50" relative="1" as="geometry">
            <mxPoint x="990" y="420" as="sourcePoint" />
            <mxPoint x="1040" y="370" as="targetPoint" />
          </mxGeometry>
        </mxCell>
      </root>
    </mxGraphModel>
  </diagram>
</mxfile>
